<svg width="10" height="11" viewBox="0 0 10 11" fill="none" xmlns="http://www.w3.org/2000/svg">
<g id="arrow-r">
<path id="Vector" d="M8.16828 4.48745L5.24015 7.36932C5.17626 7.43253 5.09002 7.46798 5.00015 7.46798C4.91028 7.46798 4.82404 7.43253 4.76015 7.36932L1.83202 4.48807C1.76774 4.4249 1.68122 4.3895 1.59109 4.3895C1.50096 4.3895 1.41443 4.4249 1.35015 4.48807C1.31849 4.51893 1.29334 4.55582 1.27616 4.59655C1.25898 4.63729 1.25013 4.68105 1.25013 4.72526C1.25013 4.76947 1.25898 4.81323 1.27616 4.85396C1.29334 4.8947 1.31849 4.93158 1.35015 4.96245L4.27765 7.8437C4.47048 8.03302 4.72991 8.1391 5.00015 8.1391C5.27039 8.1391 5.52982 8.03302 5.72265 7.8437L8.65015 4.96245C8.6819 4.93158 8.70714 4.89465 8.72437 4.85386C8.74161 4.81307 8.75049 4.76923 8.75049 4.72495C8.75049 4.68066 8.74161 4.63683 8.72437 4.59603C8.70714 4.55524 8.6819 4.51832 8.65015 4.48745C8.58587 4.42427 8.49934 4.38888 8.40921 4.38888C8.31908 4.38888 8.23256 4.42427 8.16828 4.48745Z" fill="black"/>
</g>
</svg>
