<svg width="24" height="24" viewBox="0 0 24 24" fill="none" xmlns="http://www.w3.org/2000/svg">
<g id="arrow-up">
<rect x="0.5" y="0.5" width="23" height="23" rx="11.5" stroke="white"/>
<path id="Vector" d="M7.7197 14.2738L11.6757 10.5852C11.7621 10.5043 11.8786 10.459 12 10.459C12.1214 10.459 12.2379 10.5043 12.3242 10.5852L16.2803 14.273C16.3671 14.3539 16.484 14.3992 16.6058 14.3992C16.7276 14.3992 16.8445 14.3539 16.9313 14.273C16.9741 14.2335 17.0081 14.1863 17.0313 14.1342C17.0545 14.082 17.0664 14.026 17.0664 13.9694C17.0664 13.9128 17.0545 13.8568 17.0313 13.8047C17.0081 13.7526 16.9741 13.7053 16.9313 13.6658L12.9761 9.97807C12.7156 9.73574 12.3651 9.59998 12 9.59998C11.6349 9.59998 11.2844 9.73574 11.0239 9.97807L7.06867 13.6658C7.02577 13.7054 6.99167 13.7526 6.96839 13.8048C6.9451 13.857 6.93311 13.9132 6.93311 13.9698C6.93311 14.0265 6.9451 14.0826 6.96839 14.1348C6.99167 14.187 7.02577 14.2343 7.06867 14.2738C7.15552 14.3547 7.27242 14.4 7.39418 14.4C7.51595 14.4 7.63285 14.3547 7.7197 14.2738Z" fill="white"/>
</g>
</svg>
