<svg width="14" height="13" viewBox="0 0 14 13" fill="none" xmlns="http://www.w3.org/2000/svg">
<g id="arrow-r">
<path id="Vector" d="M11.4359 5.1837L7.3365 8.93014C7.24706 9.0123 7.12632 9.05839 7.0005 9.05839C6.87468 9.05839 6.75395 9.0123 6.6645 8.93014L2.56513 5.18451C2.47513 5.10239 2.354 5.05637 2.22782 5.05637C2.10163 5.05637 1.9805 5.10239 1.8905 5.18451C1.84619 5.22463 1.81096 5.27258 1.78692 5.32553C1.76287 5.37849 1.75048 5.43538 1.75048 5.49285C1.75048 5.55033 1.76287 5.60722 1.78692 5.66017C1.81096 5.71313 1.84619 5.76108 1.8905 5.8012L5.989 9.54682C6.25896 9.79295 6.62217 9.93085 7.0005 9.93085C7.37883 9.93085 7.74205 9.79295 8.012 9.54682L12.1105 5.8012C12.155 5.76107 12.1903 5.71307 12.2144 5.66003C12.2385 5.607 12.251 5.55002 12.251 5.49245C12.251 5.43488 12.2385 5.37789 12.2144 5.32486C12.1903 5.27183 12.155 5.22383 12.1105 5.1837C12.0205 5.10157 11.8994 5.05556 11.7732 5.05556C11.647 5.05556 11.5259 5.10157 11.4359 5.1837Z" fill="black"/>
</g>
</svg>
